<svg xmlns="http://www.w3.org/2000/svg" viewBox="-0.5 -0.5 16 16" fill="#000000" id="Envelope-Bold--Streamline-Phosphor.svg" height="16" width="16"><desc>Envelope Bold Streamline Icon: https://streamlinehq.com</desc><path d="M14.03333203125 1.7833359375H0.96666796875C0.5156191406249999 1.7833124999999999 0.15 2.1489550781249998 0.15 2.599998046875v9.255556640625c0 0.75172265625 0.609392578125 1.3611152343750001 1.361109375 1.3611152343750001h11.977781250000001c0.751740234375 0.000029296875 1.361109375 -0.609369140625 1.361109375 -1.3611152343750001V2.599998046875c0 -0.45103125000000005 -0.36563671875 -0.816662109375 -0.8166679687499999 -0.816662109375ZM7.5 7.4809453125 3.066181640625 3.416666015625h8.867636718750001ZM5.10376171875 7.5l-3.32042578125 3.043447265625V4.45655859375Zm1.208671875 1.1079433593749999 0.63563671875 0.583236328125c0.31225195312500004 0.286318359375 0.791607421875 0.286318359375 1.103859375 0l0.635642578125 -0.583236328125 3.24624609375 2.975390625H3.066181640625ZM9.89623828125 7.5l3.32042578125 -3.04344140625v6.086888671875Z" stroke-width="1"></path></svg>